{"title":"In To The West 2005 3DVDrip English Klam","uid":6237845,"size":8784730162,"categoryP":"video","categoryS":"movies","magnet":"?xt=urn:btih:88aeb1d9532388caafba37c5ed1878c183e58440&amp;dn=In+To+The+West+2005+3DVDrip+English+Klam&amp;tr=udp%3A%2F%2Ftracker.openbittorrent.com%3A80&amp;tr=udp%3A%2F%2Fopen.demonii.com%3A1337&amp;tr=udp%3A%2F%2Ftracker.coppersurfer.tk%3A6969&amp;tr=udp%3A%2F%2Fexodus.desync.com%3A6969","seeders":0,"leechers":0,"uploader":"Klambake","files":8,"time":1299941213,"description":"With: Matthew Settle, Skeet Ulrich and Michael Spears\n\nAn epic tale of two figures during the American colonization of the west, one white and the other Native American. Jacob Wheeler leaves his dull life behind to strike out west, while Loved By the Buffalo faces his destiny to try to fight a prophecy that his people will be wiped out by the settlers. Jacob marries Loved By the Buffalo's sister Thunder Heart Woman, uniting the two families while around them relations between the two races crumble. \n\nGeneral:\n\nComplete name                    : Into The West 01.avi\nFormat                           : AVI\nFormat/Info                      : Audio Video Interleave\nFile size                        : 1.37 GiB\nDuration                         : 1h 27mn\nOverall bit rate                 : 2 240 Kbps\n\nVideo:\n\nFormat                           : MPEG-4 Visual\nFormat profile                   : Simple@L3\nFormat settings, BVOP            : No\nFormat settings, QPel            : No\nFormat settings, GMC             : No warppoints\nFormat settings, Matrix          : Default (H.263)\nCodec ID                         : XVID\nCodec ID/Hint                    : XviD\nDuration                         : 1h 27mn\nBit rate                         : 1 781 Kbps\nWidth                            : 704 pixels\nHeight                           : 396 pixels\nDisplay aspect ratio             : 16:9\nFrame rate                       : 25.000 fps\nColor space                      : YUV\nChroma subsampling               : 4:2:0\nBit depth                        : 8 bits\nScan type                        : Progressive\nBits/(Pixel*Frame)               : 0.255\nStream size                      : 1.09 GiB (80%)\nWriting library                  : XviD 1.1.2 (UTC 2006-11-01)\n\nAudio:\n\nFormat                           : AC-3\nFormat/Info                      : Audio Coding 3\nMode extension                   : CM (complete main)\nCodec ID                         : 2000\nDuration                         : 1h 27mn\nBit rate mode                    : Constant\nBit rate                         : 448 Kbps\nChannel(s)                       : 6 channels\nChannel positions                : Front: L C R, Side: L R, LFE\nSampling rate                    : 48.0 KHz\nBit depth                        : 16 bits\nStream size                      : 281 MiB (20%)\nAlignment                        : Aligned on interleaves\nInterleave, duration             : 32 ms (0.80 video frame)","torrent":{"xt":"urn:btih:88aeb1d9532388caafba37c5ed1878c183e58440","amp;dn":"In+To+The+West+2005+3DVDrip+English+Klam","amp;tr":["udp%3A%2F%2Ftracker.openbittorrent.com%3A80","udp%3A%2F%2Fopen.demonii.com%3A1337","udp%3A%2F%2Ftracker.coppersurfer.tk%3A6969","udp%3A%2F%2Fexodus.desync.com%3A6969"],"infoHash":"88aeb1d9532388caafba37c5ed1878c183e58440","infoHashBuffer":{"type":"Buffer","data":[136,174,177,217,83,35,136,202,175,186,55,197,237,24,120,193,131,229,132,64]},"announce":[],"urlList":[]}}